{"asset":{"version":"2.0","generator":"VECTARY"},"nodes":[{"translation":[0,0.4592179714032126,-1.8138568920866143],"scale":[0.004,0.0005,0.003],"rotation":[-0.7071067811865475,0,0,0.7071067811865476],"name":"Box 1","mesh":0},{"translation":[0.09668502903296736,0.35440119756204386,-2.0772798523755553],"scale":[0.001,0.001,0.001],"rotation":[-4.329780281177466e-17,0.7071067811865475,0.7071067811865476,4.329780281177467e-17],"name":"3D Text - A","mesh":1},{"translation":[0.06820846653296735,0.35440119756204386,-2.0772798523755553],"scale":[0.001,0.001,0.001],"rotation":[-4.329780281177466e-17,0.7071067811865475,0.7071067811865476,4.329780281177467e-17],"name":"3D Text - m","mesh":2},{"translation":[0.02635055637671735,0.35440119756204386,-2.0772798523755553],"scale":[0.001,0.001,0.001],"rotation":[-4.329780281177466e-17,0.7071067811865475,0.7071067811865476,4.329780281177467e-17],"name":"3D Text - o","mesh":3},{"translation":[-0.0008296194045326502,0.35440119756204386,-2.0772798523755553],"scale":[0.001,0.001,0.001],"rotation":[-4.329780281177466e-17,0.7071067811865475,0.7071067811865476,4.329780281177467e-17],"name":"3D Text - u","mesh":4},{"translation":[-0.02844924831078265,0.35440119756204386,-2.0772798523755553],"scale":[0.001,0.001,0.001],"rotation":[-4.329780281177466e-17,0.7071067811865475,0.7071067811865476,4.329780281177467e-17],"name":"3D Text - a","mesh":5},{"translation":[-0.05347610377953265,0.35440119756204386,-2.0772798523755553],"scale":[0.001,0.001,0.001],"rotation":[-4.329780281177466e-17,0.7071067811865475,0.7071067811865476,4.329780281177467e-17],"name":"3D Text - g","mesh":6},{"translation":[-0.07812942409203265,0.35440119756204386,-2.0772798523755553],"scale":[0.001,0.001,0.001],"rotation":[-4.329780281177466e-17,0.7071067811865475,0.7071067811865476,4.329780281177467e-17],"name":"3D Text - e","mesh":7},{"translation":[0,3.410605131648481e-16,-1.9327409026686067],"scale":[0.004,0.003,0.005],"rotation":[-0.7071067811865475,0,0,0.7071067811865476],"name":"Box","mesh":8}],"materials":[{"pbrMetallicRoughness":{"baseColorFactor":[0.5174013674966733,0.4704402453042184,0.4704402453042184,1],"metallicFactor":0,"roughnessFactor":0.2},"name":"Beluga","emissiveFactor":[0,0,0],"extensions":{},"alphaMode":"OPAQUE","doubleSided":false},{"pbrMetallicRoughness":{"baseColorFactor":[0.8670237934377415,0.8670237934377415,0.8670237934377415,1],"metallicFactor":0,"roughnessFactor":0.2},"name":"Warm Welcome","emissiveFactor":[0,0,0],"extensions":{},"alphaMode":"OPAQUE","doubleSided":false}],"meshes":[{"primitives":[{"mode":4,"attributes":{"POSITION":1,"NORMAL":2,"TEXCOORD_0":3},"material":0,"indices":0}]},{"primitives":[{"mode":4,"attributes":{"POSITION":5,"NORMAL":6,"TEXCOORD_0":7},"material":1,"indices":4}]},{"primitives":[{"mode":4,"attributes":{"POSITION":9,"NORMAL":10,"TEXCOORD_0":11},"material":1,"indices":8}]},{"primitives":[{"mode":4,"attributes":{"POSITION":13,"NORMAL":14,"TEXCOORD_0":15},"material":1,"indices":12}]},{"primitives":[{"mode":4,"attributes":{"POSITION":17,"NORMAL":18,"TEXCOORD_0":19},"material":1,"indices":16}]},{"primitives":[{"mode":4,"attributes":{"POSITION":21,"NORMAL":22,"TEXCOORD_0":23},"material":1,"indices":20}]},{"primitives":[{"mode":4,"attributes":{"POSITION":25,"NORMAL":26,"TEXCOORD_0":27},"material":1,"indices":24}]},{"primitives":[{"mode":4,"attributes":{"POSITION":29,"NORMAL":30,"TEXCOORD_0":31},"material":1,"indices":28}]},{"primitives":[{"mode":4,"attributes":{"POSITION":33,"NORMAL":34,"TEXCOORD_0":35},"material":0,"indices":32}]}],"accessors":[{"bufferView":0,"byteOffset":0,"componentType":5125,"count":2916,"type":"SCALAR"},{"bufferView":1,"byteOffset":0,"componentType":5126,"count":596,"max":[50,50,100],"min":[-50,-50,0],"type":"VEC3"},{"bufferView":2,"byteOffset":0,"componentType":5126,"count":596,"type":"VEC3"},{"bufferView":3,"byteOffset":0,"componentType":5126,"count":596,"type":"VEC2"},{"bufferView":4,"byteOffset":0,"componentType":5125,"count":252,"type":"SCALAR"},{"bufferView":5,"byteOffset":0,"componentType":5126,"count":171,"max":[31.641000747680664,2.194567075129326e-15,35.84000015258789],"min":[0,-15,0],"type":"VEC3"},{"bufferView":6,"byteOffset":0,"componentType":5126,"count":171,"type":"VEC3"},{"bufferView":7,"byteOffset":0,"componentType":5126,"count":171,"type":"VEC2"},{"bufferView":8,"byteOffset":0,"componentType":5125,"count":1044,"type":"SCALAR"},{"bufferView":9,"byteOffset":0,"componentType":5126,"count":698,"max":[42.45600128173828,1.6683363158236856e-15,27.246000289916992],"min":[4.296999931335449,-15,0],"type":"VEC3"},{"bufferView":10,"byteOffset":0,"componentType":5126,"count":698,"type":"VEC3"},{"bufferView":11,"byteOffset":0,"componentType":5126,"count":698,"type":"VEC2"},{"bufferView":12,"byteOffset":0,"componentType":5125,"count":1020,"type":"SCALAR"},{"bufferView":13,"byteOffset":0,"componentType":5126,"count":678,"max":[27.39299964904785,1.6683363158236856e-15,27.246000289916992],"min":[2.808000087738037,-15,-0.4880000054836273],"type":"VEC3"},{"bufferView":14,"byteOffset":0,"componentType":5126,"count":678,"type":"VEC3"},{"bufferView":15,"byteOffset":0,"componentType":5126,"count":678,"type":"VEC2"},{"bufferView":16,"byteOffset":0,"componentType":5125,"count":576,"type":"SCALAR"},{"bufferView":17,"byteOffset":0,"componentType":5126,"count":388,"max":[26.392000198364258,1.6384548992686853e-15,26.757999420166016],"min":[4.004000186920166,-15,-0.4880000054836273],"type":"VEC3"},{"bufferView":18,"byteOffset":0,"componentType":5126,"count":388,"type":"VEC3"},{"bufferView":19,"byteOffset":0,"componentType":5126,"count":388,"type":"VEC2"},{"bufferView":20,"byteOffset":0,"componentType":5125,"count":1188,"type":"SCALAR"},{"bufferView":21,"byteOffset":0,"componentType":5126,"count":794,"max":[23.7549991607666,1.6653360192453925e-15,27.19700050354004],"min":[2.2950000762939453,-15,-0.4880000054836273],"type":"VEC3"},{"bufferView":22,"byteOffset":0,"componentType":5126,"count":794,"type":"VEC3"},{"bufferView":23,"byteOffset":0,"componentType":5126,"count":794,"type":"VEC2"},{"bufferView":24,"byteOffset":0,"componentType":5125,"count":2412,"type":"SCALAR"},{"bufferView":25,"byteOffset":0,"componentType":5126,"count":1604,"max":[26.195999145507812,1.6683363158236856e-15,27.246000289916992],"min":[0.9520000219345093,-15,-12.01200008392334],"type":"VEC3"},{"bufferView":26,"byteOffset":0,"componentType":5126,"count":1604,"type":"VEC3"},{"bufferView":27,"byteOffset":0,"componentType":5126,"count":1604,"type":"VEC2"},{"bufferView":28,"byteOffset":0,"componentType":5125,"count":948,"type":"SCALAR"},{"bufferView":29,"byteOffset":0,"componentType":5126,"count":630,"max":[25.43899917602539,1.6683363158236856e-15,27.246000289916992],"min":[2.808000087738037,-15,-0.4880000054836273],"type":"VEC3"},{"bufferView":30,"byteOffset":0,"componentType":5126,"count":630,"type":"VEC3"},{"bufferView":31,"byteOffset":0,"componentType":5126,"count":630,"type":"VEC2"},{"bufferView":32,"byteOffset":0,"componentType":5125,"count":2916,"type":"SCALAR"},{"bufferView":33,"byteOffset":0,"componentType":5126,"count":596,"max":[50,50,100],"min":[-50,-50,0],"type":"VEC3"},{"bufferView":34,"byteOffset":0,"componentType":5126,"count":596,"type":"VEC3"},{"bufferView":35,"byteOffset":0,"componentType":5126,"count":596,"type":"VEC2"}],"bufferViews":[{"buffer":0,"byteOffset":0,"byteLength":11664,"target":34963},{"buffer":0,"byteOffset":11664,"byteLength":7152,"target":34962},{"buffer":0,"byteOffset":18816,"byteLength":7152,"target":34962},{"buffer":0,"byteOffset":25968,"byteLength":4768,"target":34962},{"buffer":0,"byteOffset":30736,"byteLength":1008,"target":34963},{"buffer":0,"byteOffset":31744,"byteLength":2052,"target":34962},{"buffer":0,"byteOffset":33796,"byteLength":2052,"target":34962},{"buffer":0,"byteOffset":35848,"byteLength":1368,"target":34962},{"buffer":0,"byteOffset":37216,"byteLength":4176,"target":34963},{"buffer":0,"byteOffset":41392,"byteLength":8376,"target":34962},{"buffer":0,"byteOffset":49768,"byteLength":8376,"target":34962},{"buffer":0,"byteOffset":58144,"byteLength":5584,"target":34962},{"buffer":0,"byteOffset":63728,"byteLength":4080,"target":34963},{"buffer":0,"byteOffset":67808,"byteLength":8136,"target":34962},{"buffer":0,"byteOffset":75944,"byteLength":8136,"target":34962},{"buffer":0,"byteOffset":84080,"byteLength":5424,"target":34962},{"buffer":0,"byteOffset":89504,"byteLength":2304,"target":34963},{"buffer":0,"byteOffset":91808,"byteLength":4656,"target":34962},{"buffer":0,"byteOffset":96464,"byteLength":4656,"target":34962},{"buffer":0,"byteOffset":101120,"byteLength":3104,"target":34962},{"buffer":0,"byteOffset":104224,"byteLength":4752,"target":34963},{"buffer":0,"byteOffset":108976,"byteLength":9528,"target":34962},{"buffer":0,"byteOffset":118504,"byteLength":9528,"target":34962},{"buffer":0,"byteOffset":128032,"byteLength":6352,"target":34962},{"buffer":0,"byteOffset":134384,"byteLength":9648,"target":34963},{"buffer":0,"byteOffset":144032,"byteLength":19248,"target":34962},{"buffer":0,"byteOffset":163280,"byteLength":19248,"target":34962},{"buffer":0,"byteOffset":182528,"byteLength":12832,"target":34962},{"buffer":0,"byteOffset":195360,"byteLength":3792,"target":34963},{"buffer":0,"byteOffset":199152,"byteLength":7560,"target":34962},{"buffer":0,"byteOffset":206712,"byteLength":7560,"target":34962},{"buffer":0,"byteOffset":214272,"byteLength":5040,"target":34962},{"buffer":0,"byteOffset":219312,"byteLength":11664,"target":34963},{"buffer":0,"byteOffset":230976,"byteLength":7152,"target":34962},{"buffer":0,"byteOffset":238128,"byteLength":7152,"target":34962},{"buffer":0,"byteOffset":245280,"byteLength":4768,"target":34962}],"scene":0,"scenes":[{"nodes":[0,1,2,3,4,5,6,7,8],"name":"Project Name"}],"extensionsUsed":["KHR_texture_transform"],"buffers":[{"byteLength":250048,"uri":"ProjectName.bin"}]}